<svg width="36" height="37" viewBox="0 0 36 37" fill="none" xmlns="http://www.w3.org/2000/svg">
<path d="M18.041 0H17.959C8.04053 0 0 8.04289 0 17.9643V18.0463C0 27.9677 8.04053 36.0106 17.959 36.0106H18.041C27.9595 36.0106 36 27.9677 36 18.0463V17.9643C36 8.04289 27.9595 0 18.041 0Z" fill="#F97068"/>
<path d="M8.58507 11.9686C8.11084 11.5283 7.875 10.9833 7.875 10.3348C7.875 9.6863 8.1121 9.11731 8.58507 8.67574C9.0593 8.23543 9.66975 8.01465 10.4177 8.01465C11.1656 8.01465 11.7521 8.23543 12.2251 8.67574C12.6993 9.11605 12.9351 9.6699 12.9351 10.3348C12.9351 10.9997 12.698 11.5283 12.2251 11.9686C11.7508 12.4089 11.1492 12.6297 10.4177 12.6297C9.68615 12.6297 9.0593 12.4089 8.58507 11.9686ZM12.5366 14.4944V27.9938H8.27228V14.4944H12.5366Z" fill="#FEFFFC"/>
<path d="M26.7313 15.8274C27.6609 16.8367 28.125 18.222 28.125 19.9858V27.7548H24.0752V20.5333C24.0752 19.6439 23.8444 18.9525 23.384 18.4604C22.9236 17.9684 22.3031 17.7211 21.5262 17.7211C20.7492 17.7211 20.1287 17.9671 19.6683 18.4604C19.208 18.9525 18.9771 19.6439 18.9771 20.5333V27.7548H14.9033V14.456H18.9771V16.2198C19.3896 15.6319 19.9458 15.1676 20.6446 14.8257C21.3433 14.4838 22.129 14.3135 23.0031 14.3135C24.5595 14.3135 25.8031 14.8181 26.7313 15.8262V15.8274Z" fill="#FEFFFC"/>
</svg>
