<svg width="36" height="37" viewBox="0 0 36 37" fill="none" xmlns="http://www.w3.org/2000/svg">
<path d="M18.041 0H17.959C8.04052 0 0 8.04289 0 17.9643V18.0463C0 27.9677 8.04052 36.0106 17.959 36.0106H18.041C27.9595 36.0106 36 27.9677 36 18.0463V17.9643C36 8.04289 27.9595 0 18.041 0Z" fill="#F97068"/>
<path d="M23.5701 7.32617H12.4307C9.3532 7.32617 6.84961 9.8305 6.84961 12.9089V23.1028C6.84961 26.1812 9.3532 28.6855 12.4307 28.6855H23.5701C26.6475 28.6855 29.1511 26.1812 29.1511 23.1028V12.9089C29.1511 9.8305 26.6475 7.32617 23.5701 7.32617ZM8.81843 12.9089C8.81843 10.9168 10.4391 9.29557 12.4307 9.29557H23.5701C25.5616 9.29557 27.1823 10.9168 27.1823 12.9089V23.1028C27.1823 25.0949 25.5616 26.7161 23.5701 26.7161H12.4307C10.4391 26.7161 8.81843 25.0949 8.81843 23.1028V12.9089Z" fill="white"/>
<path d="M17.9999 23.1972C20.8617 23.1972 23.1912 20.8683 23.1912 18.0044C23.1912 15.1405 20.863 12.8115 17.9999 12.8115C15.1369 12.8115 12.8086 15.1405 12.8086 18.0044C12.8086 20.8683 15.1369 23.1972 17.9999 23.1972ZM17.9999 14.7822C19.777 14.7822 21.2224 16.228 21.2224 18.0056C21.2224 19.7833 19.777 21.2291 17.9999 21.2291C16.2228 21.2291 14.7774 19.7833 14.7774 18.0056C14.7774 16.228 16.2228 14.7822 17.9999 14.7822Z" fill="white"/>
<path d="M23.6722 13.6508C24.4428 13.6508 25.0709 13.0238 25.0709 12.2517C25.0709 11.4796 24.4441 10.8525 23.6722 10.8525C22.9003 10.8525 22.2734 11.4796 22.2734 12.2517C22.2734 13.0238 22.9003 13.6508 23.6722 13.6508Z" fill="white"/>
</svg>
