<svg width="198" height="199" viewBox="0 0 198 199" fill="none" xmlns="http://www.w3.org/2000/svg">
<path d="M197.495 99.76C197.495 149.652 160.523 190.899 112.493 197.592C108.002 198.215 103.407 198.54 98.7435 198.54C93.36 198.54 88.0733 198.111 82.9251 197.281C35.9055 189.708 -0.0078125 148.925 -0.0078125 99.76C-0.0078125 45.2026 44.2092 0.972595 98.7505 0.972595C153.292 0.972595 197.509 45.2026 197.509 99.76H197.495Z" fill="#383D38"/>
<path d="M40.0435 44.5451L85.5891 105.457L39.7598 154.982H50.0771L90.2046 111.624L122.623 154.982H157.727L109.621 90.644L152.281 44.5451H141.964L105.013 84.4767L75.1542 44.5451H40.0503H40.0435ZM55.2115 52.1452H71.3345L142.545 147.382H126.422L55.2115 52.1452Z" fill="white"/>
</svg>
